<svg id="Capa_1" enable-background="new 0 0 512 512" height="512" viewBox="0 0 512 512" width="512" xmlns="http://www.w3.org/2000/svg"><g><g><path d="m415.278 511.629h-318.556c.495-9.885 1.06-19.782 1.694-29.667 1.947-30.439 25.819-54.909 56.2-57.709 67.594-6.233 135.188-6.233 202.781 0 30.37 2.8 54.253 27.27 56.188 57.709.633 9.885 1.198 19.781 1.693 29.667z" fill="#90d8f9"/><path d="m221.683 420.118c-2.204.196-4.409.391-6.614.597-32.976 3.039-58.895 29.607-61.018 62.656-.598 9.416-1.144 18.842-1.628 28.258h-55.701c.494-9.879 1.061-19.779 1.69-29.669 1.947-30.432 25.816-54.909 56.207-57.7 22.354-2.062 44.709-3.442 67.064-4.142z" fill="#75cef9"/><path d="m292.314 367.506v48.645c0 20.058-16.256 36.314-36.314 36.314s-36.314-16.256-36.314-36.314v-48.645z" fill="#407093"/><path d="m266.281 450.982c-3.256.968-6.706 1.483-10.281 1.483-20.057 0-36.314-16.256-36.314-36.314v-48.645h20.563v48.645c0 16.483 10.981 30.401 26.032 34.831z" fill="#365e7d"/><path d="m292.314 367.506v47.388c-24.209.412-48.419.412-72.628 0v-47.388z" fill="#365e7d"/><g fill="#dd636e"><circle cx="170.465" cy="30.657" r="30.285"/><circle cx="256" cy="30.657" r="30.285"/><circle cx="341.535" cy="30.657" r="30.285"/></g><g fill="#da4a54"><path d="m179.716 59.504c-2.915.938-6.027 1.442-9.251 1.442-16.73 0-30.287-13.557-30.287-30.287 0-16.72 13.557-30.287 30.287-30.287 3.224 0 6.336.505 9.251 1.442-12.208 3.904-21.036 15.35-21.036 28.845 0 13.505 8.828 24.94 21.036 28.845z"/><path d="m265.252 59.504c-2.915.938-6.027 1.442-9.251 1.442-16.73 0-30.287-13.557-30.287-30.287 0-16.72 13.557-30.287 30.287-30.287 3.224 0 6.336.505 9.251 1.442-12.208 3.904-21.036 15.35-21.036 28.845 0 13.505 8.828 24.94 21.036 28.845z"/><path d="m350.788 59.504c-2.915.938-6.027 1.442-9.251 1.442-16.73 0-30.287-13.557-30.287-30.287 0-16.72 13.557-30.287 30.287-30.287 3.224 0 6.336.505 9.251 1.442-12.208 3.904-21.036 15.35-21.036 28.845 0 13.505 8.828 24.94 21.036 28.845z"/></g><path d="m474.477 120.782c-145.651-3.466-291.303-3.466-436.954 0-15.711.374-29.44 11.052-33.342 26.275-5.575 21.755-5.575 43.511 0 65.266 3.901 15.223 17.631 25.901 33.342 26.275 145.651 3.466 291.303 3.466 436.954 0 15.711-.374 29.44-11.052 33.341-26.275 5.575-21.755 5.575-43.511 0-65.266-3.901-15.223-17.63-25.901-33.341-26.275z" fill="#407093"/><path d="m510.53 199.063c-.668 4.42-1.571 8.84-2.708 13.259-3.904 15.229-17.632 25.909-33.342 26.273-145.654 3.47-291.307 3.47-436.961 0-15.71-.363-29.438-11.044-33.342-26.273-1.137-4.42-2.04-8.84-2.708-13.259 6.624 3.353 16.718 5.451 27.738 5.557 151.199 1.465 302.386 1.465 453.585 0 11.021-.106 21.115-2.204 27.738-5.557z" fill="#365e7d"/><path d="m400.174 33.034c-96.116-6.477-192.233-6.477-288.349 0-34.409 2.319-61.935 29.469-64.839 63.833-6.51 77.047-6.51 154.095 0 231.142 2.904 34.364 30.43 61.515 64.839 63.833 96.116 6.477 192.233 6.477 288.349 0 34.409-2.319 61.935-29.469 64.839-63.833 6.51-77.047 6.51-154.095 0-231.142-2.904-34.364-30.43-61.515-64.839-63.833z" fill="#90d8f9"/><path d="m119.401 392.334c-2.532-.152-5.053-.328-7.574-.492-34.409-2.321-61.935-29.473-64.843-63.835-6.507-77.047-6.507-154.095 0-231.142 2.907-34.362 30.434-61.514 64.843-63.835 2.521-.164 5.041-.34 7.574-.492-23.072 10.691-39.567 33.165-41.818 59.801-6.765 80.06-6.765 160.132 0 240.204 2.251 26.637 18.746 49.099 41.818 59.791z" fill="#75cef9"/><path d="m388.256 69.546c-88.171-5.844-176.341-5.844-264.512 0-17.532 1.162-31.745 14.68-33.695 32.142-6.679 59.799-6.679 119.597 0 179.396 1.95 17.462 16.163 30.98 33.695 32.142 88.171 5.844 176.341 5.844 264.512 0 17.532-1.162 31.745-14.68 33.695-32.142 6.679-59.799 6.679-119.598 0-179.396-1.95-17.462-16.163-30.98-33.695-32.142z" fill="#daeefa"/><path d="m134.905 313.927c-3.716-.223-7.444-.457-11.161-.703-17.527-1.161-31.747-14.678-33.693-32.134-6.683-59.802-6.683-119.604 0-179.406 1.946-17.456 16.167-30.974 33.693-32.134 3.728-.246 7.456-.481 11.184-.703-10.61 5.733-18.172 16.39-19.578 29.016-6.964 62.346-6.964 124.704 0 187.05 1.407 12.624 8.957 23.269 19.555 29.014z" fill="#c0e3f8"/><g fill="#90d8f9"><circle cx="165.989" cy="131.258" r="31.968"/><circle cx="346.011" cy="131.258" r="31.968"/></g><g fill="#75cef9"><path d="m179.544 160.215c-4.115 1.934-8.711 3.013-13.553 3.013-17.656 0-31.97-14.315-31.97-31.97s14.314-31.97 31.97-31.97c4.842 0 9.438 1.079 13.553 3.013-10.88 5.1-18.418 16.143-18.418 28.957s7.538 23.857 18.418 28.957z"/><path d="m359.571 160.215c-4.115 1.934-8.711 3.013-13.553 3.013-17.656 0-31.97-14.315-31.97-31.97s14.314-31.97 31.97-31.97c4.842 0 9.438 1.079 13.553 3.013-10.891 5.088-18.43 16.143-18.43 28.957s7.539 23.869 18.43 28.957z"/></g><path d="m256 224.349c-24.897 0-45.153-20.255-45.153-45.153 0-4.267 3.459-7.726 7.726-7.726s7.726 3.459 7.726 7.726c0 16.377 13.324 29.7 29.7 29.7s29.7-13.323 29.7-29.7c0-4.267 3.459-7.726 7.726-7.726 4.268 0 7.726 3.459 7.726 7.726.002 24.897-20.254 45.153-45.151 45.153z" fill="#dd636e"/><g fill="#90d8f9"><g><path d="m393.532 202.934h-31.578c-4.268 0-7.726-3.459-7.726-7.726s3.459-7.726 7.726-7.726h31.578c4.268 0 7.726 3.459 7.726 7.726.001 4.267-3.458 7.726-7.726 7.726z"/><path d="m393.532 229.055h-31.578c-4.268 0-7.726-3.459-7.726-7.726s3.459-7.726 7.726-7.726h31.578c4.268 0 7.726 3.459 7.726 7.726s-3.458 7.726-7.726 7.726z"/></g><g><path d="m150.046 202.934h-31.578c-4.268 0-7.726-3.459-7.726-7.726s3.459-7.726 7.726-7.726h31.578c4.268 0 7.726 3.459 7.726 7.726.001 4.267-3.458 7.726-7.726 7.726z"/><path d="m150.046 229.055h-31.578c-4.268 0-7.726-3.459-7.726-7.726s3.459-7.726 7.726-7.726h31.578c4.268 0 7.726 3.459 7.726 7.726s-3.458 7.726-7.726 7.726z"/></g></g><path d="m256 325.315c-44.359 0-88.718-1.46-132.767-4.38-21.312-1.413-38.497-17.812-40.864-38.994-6.711-60.088-6.711-121.023 0-181.111 2.367-21.182 19.552-37.581 40.864-38.994 88.099-5.84 177.437-5.84 265.533 0 21.312 1.412 38.497 17.812 40.864 38.994 6.711 60.089 6.711 121.023 0 181.112-2.367 21.182-19.552 37.581-40.864 38.994-44.048 2.919-88.407 4.379-132.766 4.379zm0-252.406c-44.017 0-88.035 1.449-131.744 4.346-13.837.917-24.994 11.553-26.529 25.29-6.583 58.95-6.583 118.731.001 177.681 1.534 13.737 12.691 24.373 26.528 25.29 87.419 5.795 176.07 5.795 263.489 0 13.837-.917 24.994-11.553 26.529-25.29 6.583-58.95 6.583-118.731-.001-177.681-1.534-13.737-12.691-24.373-26.528-25.29-43.71-2.897-87.728-4.346-131.745-4.346z" fill="#75cef9"/></g><g fill="#f6f1f1"><path d="m157.932 447.9c-.021-.055-.042-.109-.064-.163-1.079-2.626-3.61-4.322-6.449-4.322-.002 0-.005 0-.008 0-2.842.003-5.373 1.706-6.447 4.337-.018.044-.035.088-.053.133l-16.131 42.353c-1.179 3.097.375 6.563 3.472 7.743.703.268 1.425.395 2.135.395 2.418 0 4.696-1.472 5.608-3.866l2.545-6.684h17.634l2.516 6.667c1.169 3.1 4.631 4.664 7.731 3.495 3.101-1.17 4.665-4.632 3.495-7.732zm-10.822 27.925 4.287-11.256 4.248 11.256z"/><path d="m190.284 443.415c-3.313 0-6 2.686-6 6v42.958c0 3.314 2.687 6 6 6s6-2.686 6-6v-42.958c0-3.313-2.686-6-6-6z"/></g></g></svg>