<?xml version="1.0" encoding="UTF-8"?>
<svg id="Layer_2" data-name="Layer 2" xmlns="http://www.w3.org/2000/svg" viewBox="0 0 1121.43 957.62">
  <defs>
    <style>
      .cls-1 {
        fill: #fff;
      }

      .cls-2 {
        fill: #ffd300;
      }

      .cls-3 {
        fill: #c13847;
      }

      .cls-4 {
        fill: #f34a5c;
      }

      .cls-5 {
        fill: #37cdf5;
      }

      .cls-6 {
        fill: #525252;
      }
    </style>
  </defs>
  <g id="Layer_1-2" data-name="Layer 1">
    <g>
      <path class="cls-1" d="m1119.57,718.73c-1.61,25.96-13.1,46.7-34.29,61.43-10.28,7.15-21.99,12-34,16.18-16.21,5.65-31.86,12.9-48.01,18.73-13.17,4.75-26.1,10.11-39.22,14.98-12.99,4.83-25.84,10.15-38.82,15.09-12.8,4.87-25.43,10.14-38.3,14.86-15.69,5.76-31.01,12.5-46.57,18.63-16.32,6.43-32.79,12.5-49.1,18.97-7.73,3.06-15.39,6.6-23.14,9.3-11.38,3.96-22.37,8.82-33.68,12.89-7.13,2.57-13.95,6.28-21.06,8.54-14.98,4.76-29.33,11.08-44,16.57-8.2,3.07-16.31,6.35-24.67,8.99-8.73,2.76-17.69,3.44-26.8,3.71-11.16.33-21.62-2.74-31.18-7.48-16.55-8.2-29.69-20.66-38.54-37.15-5.66-10.55-9.37-21.79-10.68-33.72-.38-3.43.22-6.96.22-10.44.02-98.98.02-197.97,0-296.95,0-1.45.42-3-.61-4.56-2.81-.11-4.44,2.22-6.64,3.4-14.92,7.99-30.39,14.83-45.65,22.12-7.9,3.78-16.55,6.36-23.83,10.69-9.36,5.57-19.12,10.15-28.85,14.73-21.04,9.91-41.81,20.37-63.08,29.81-13.52,6-26.86,12.54-40.1,19.11-17.53,8.7-35.34,16.8-52.82,25.57-6.96,3.49-13.89,6.87-21.3,9.41-2.8.96-5.28,3.82-8.35,5.12-5.88,2.5-11.8,4.9-17.68,7.41-1.64.7-3.06.73-4.59-1.8-.4,5.6-4.05,6.92-7.3,8.68-9.73,5.26-19.99,9.41-29.87,14.35-10.69,5.35-21.38,11.25-32.75,14.81-6.56,2.05-11.11,6.81-17.33,8.98-6.29,2.2-12.11,5.72-18.33,8.15-8.48,3.31-17.25,5.69-26.47,5.91.05-.39.15-.84-.48-.74-.09.01-.1.49-.15.74-2.08.04-4.15.08-6.23.12-.02-.76-.38-1.29-1.16-1.1-.33.08-.53.66-.79,1.01-13.36,1.16-25.14-4.08-36.91-9.23-1.42-.62-2.4-2.37-3.4-3.73-.45-.61-.56-1.4-1.48-1.62-13.45-3.24-20.26-14.19-27.58-24.27C3.22,720.09-.04,703.15,0,684.99c.25-112.3.24-224.59.19-336.89,0-20.1,3.1-39.82,9.59-58.59,8.44-24.41,20.53-47.13,37.4-67.11,12.24-14.5,26.15-26.97,41.65-37.83,11.55-8.09,23.74-15.48,36.78-20.23,13.06-4.76,25.14-11.67,38.38-15.86,4.75-1.5,9.26-3.77,13.88-5.69,9.31-3.86,18.58-7.84,27.86-11.72,9.86-4.13,19.82-8.17,29.89-11.88,7.09-2.61,14.09-5.88,21.13-8.86,11.22-4.75,22.64-9.04,33.89-13.73,14.6-6.08,28.87-13.09,43.78-18.27,8.95-3.11,17.22-7.53,25.99-10.9,13.1-5.04,25.83-11.05,38.85-16.32,17.48-7.07,35.36-13.21,52.53-20.95,11.39-5.13,23.12-9.42,34.51-14.56,9.46-4.28,19.97-6.22,29.94-9.31,10.04-3.11,20.21-3.23,30.3-4.85,9.3-1.49,18.53-1.04,27.81-.6.4,1.21,1.26.87,2.1.63,8.83.28,17.73.89,26.18,3.22,12.6,3.48,25.48,6.16,37.57,11.35,12.08,5.17,24.08,10.51,36.22,15.54,14.08,5.84,28.39,11.11,42.35,17.21,10.36,4.53,20.92,8.56,31.23,13.25,9.04,4.11,18.69,7.16,27.86,11.24,5.87,2.61,12.38,3.9,18,6.92,11.4,6.12,23.7,10.07,35.55,14.99,13.33,5.53,26.65,11.17,40.1,16.46,11.32,4.45,22.44,9.4,33.71,13.98,14.15,5.76,28.56,10.91,42.46,17.2,9.88,4.47,19.98,8.3,29.95,12.49,8.62,3.63,17.51,6.7,25.9,10.79,15.02,7.32,29.2,15.94,42.09,26.81,14.94,12.59,28.27,26.53,39.52,42.46,2.53,3.58,5.99,7.17,6.74,11.18,1.41,7.56,7.13,12.39,10.09,18.94,5.77,12.76,10.04,25.94,13.3,39.43,5.54,22.91,5.46,46.32,5.44,69.75-.13,110.66-.06,221.32-.07,331.97,0,2.66-.13,5.33-.2,7.99-2.64.86-2.36,2.34-.87,4.08ZM70.45,324.61c-6.45,5.45-8.03,12.41-8.01,20.72.21,113.43.14,226.87.15,340.3,0,4.45-.31,8.96,1.88,13.12,7.82,14.86,22.22,19.76,37.43,12.52,24.25-11.55,48.44-23.22,72.65-34.84,36.97-17.74,73.94-35.48,110.9-53.23,15.6-7.49,31.21-14.97,46.78-22.51,13.99-6.78,27.93-13.64,41.9-20.46,8.63-4.07,17.28-8.1,25.88-12.22,15.64-7.49,31.26-15.03,46.87-22.56,16.89-8.15,33.83-16.22,50.65-24.54,10.29-5.09,15.31-13.94,14.65-23.82-.83-12.36-8.19-19.43-18.9-23.46-14.84-5.59-29.37-11.95-44.31-17.32-16.56-5.95-32.66-13.18-49.03-19.66-20.79-8.23-41.68-16.19-62.46-24.44-17.09-6.78-34.04-13.96-51.14-20.71-16.17-6.38-32.67-11.97-48.66-18.76-17.58-7.46-35.41-14.25-53.06-21.53-13.86-5.72-27.95-10.9-41.9-16.43-13.47-5.35-26.82-11.03-40.35-16.22-11.27-4.33-25.49-2.96-31.91,6.04Zm993.03,200.56c0-59.66.01-119.31-.02-178.97,0-4.15.28-8.44-.6-12.43-3.53-15.87-19.37-23.41-35.18-17.23-52.82,20.62-105.67,41.17-158.52,61.73-34.95,13.6-69.9,27.2-104.86,40.75-21.5,8.34-43.05,16.56-64.55,24.88-15.92,6.16-31.81,12.4-47.71,18.6-5.35,2.09-10.71,4.14-16.03,6.3-9.4,3.81-19.13,7.03-28.07,11.73-9.16,4.81-11.91,13.43-11.89,23.81.2,120.64.13,241.29.13,361.93,0,1.17.26,2.4-.04,3.49-2.14,7.83,1.71,13.93,6.16,19.44,7.43,9.19,17.43,11.09,30.82,5.93,39.97-15.41,79.85-31.03,119.77-46.56,52.55-20.44,105.11-40.87,157.67-61.3,17.91-6.96,35.82-13.92,53.74-20.85,26.93-10.43,53.82-20.97,80.82-31.2,11.71-4.44,18.51-13.9,18.46-27.59-.2-60.82-.09-121.64-.09-182.47Zm-501.11-95.38c8.15,0,16.28-.25,24.3-1.83,13.45-2.65,26.4-6.88,38.93-12.46,7.18-3.19,14.5-6.02,21.64-9.39,7.5-3.53,15.91-4.94,23.76-8.26,27.44-11.6,55.29-22.25,83-33.2,8.42-3.33,17.14-5.99,25.3-9.86,10.65-5.06,21.73-9.14,32.57-13.63,11.6-4.81,23.47-9.19,35.19-13.83,5.99-2.37,11.91-5.13,17.91-7.27,7.39-2.63,15-5.04,22.13-8.13,20.78-8.99,42.17-16.42,63-25.27,11.52-4.89,23.19-9.49,34.93-13.83,12.99-4.81,19.33-12.38,18.47-28.43-.46-8.73-5.02-14.67-12.19-18.05-12.37-5.84-25.21-10.71-37.86-15.94-27.01-11.17-54.26-21.72-80.99-33.6-23.93-10.63-48.46-19.86-72.6-30.02-13.22-5.56-26.45-11.15-39.82-16.39-21.74-8.52-43.1-18.04-64.65-27.05-17.42-7.28-34.88-14.45-52.33-21.65-22.24-9.18-44.15-19.36-68.66-21.38-17.29-1.43-34.61-.82-50.85,4.99-24.51,8.77-48.42,19.23-72.4,29.43-27.83,11.84-56.05,22.75-83.8,34.82-15.65,6.81-31.62,12.87-47.41,19.36-12.46,5.12-24.85,10.39-37.28,15.58-24.14,10.07-48.27,20.18-72.44,30.19-24,9.94-48.02,19.83-72.08,29.63-8.6,3.5-14.42,9.26-16.48,18.5-2.06,9.21,2.79,22.76,9.76,26.11,7.12,3.42,14.36,6.63,21.71,9.54,20.73,8.22,41.57,16.19,62.32,24.35,15,5.9,30.02,11.75,44.87,18,10.9,4.59,22.21,8.09,32.98,13.07,8.51,3.94,17.84,6.11,26.33,10.08,8.08,3.77,16.59,6.36,24.63,10.28,8.77,4.28,18.41,6.74,27.52,10.37,12.77,5.07,25.16,11.21,38.16,15.52,9.77,3.24,19.12,7.49,28.53,11.36,23.49,9.65,47.42,18.17,70.78,28.14,16.92,7.22,34.76,10.15,53.11,10.15Z"/>
      <path class="cls-6" d="m1119.57,718.73c-1.49-1.74-1.77-3.22.87-4.08,1.21,1.68,1.72,3.21-.87,4.08Z"/>
      <path class="cls-6" d="m576.43,1.48c-.83.24-1.7.58-2.1-.63,1.22-1.53,1.76-.78,2.1.63Z"/>
      <path class="cls-6" d="m83.37,773.78c.26-.35.46-.93.79-1.01.78-.19,1.14.34,1.16,1.1-.7,1.08-1.35,1.04-1.95-.09Z"/>
      <path class="cls-6" d="m91.55,773.76c.05-.26.06-.73.15-.74.63-.1.53.35.48.74l-.31.24s-.31-.23-.31-.23Z"/>
      <path class="cls-5" d="m1063.48,525.16c0,60.82-.11,121.64.09,182.47.05,13.68-6.75,23.15-18.46,27.59-27,10.23-53.89,20.77-80.82,31.2-17.92,6.94-35.83,13.89-53.74,20.85-52.56,20.43-105.12,40.86-157.67,61.3-39.92,15.53-79.81,31.15-119.77,46.56-13.38,5.16-23.39,3.26-30.82-5.93-4.45-5.51-8.3-11.61-6.16-19.44.3-1.09.04-2.32.04-3.49,0-120.64.07-241.29-.13-361.93-.02-10.38,2.74-18.99,11.89-23.81,8.94-4.7,18.67-7.91,28.07-11.73,5.32-2.16,10.68-4.21,16.03-6.3,15.9-6.21,31.79-12.44,47.71-18.6,21.51-8.32,43.05-16.55,64.55-24.88,34.97-13.55,69.91-27.15,104.86-40.75,52.85-20.56,105.7-41.12,158.52-61.73,15.81-6.17,31.66,1.36,35.18,17.23.89,3.99.6,8.28.6,12.43.03,59.66.02,119.31.02,178.97Z"/>
      <path class="cls-2" d="m562.37,429.78c-18.35,0-36.2-2.93-53.11-10.15-23.36-9.97-47.29-18.49-70.78-28.14-9.42-3.87-18.76-8.12-28.53-11.36-13.01-4.31-25.4-10.44-38.16-15.52-9.11-3.62-18.75-6.09-27.52-10.37-8.04-3.92-16.55-6.51-24.63-10.28-8.49-3.97-17.82-6.15-26.33-10.08-10.77-4.98-22.08-8.48-32.98-13.07-14.85-6.25-29.87-12.1-44.87-18-20.76-8.16-41.59-16.13-62.32-24.35-7.34-2.91-14.59-6.11-21.71-9.54-6.97-3.35-11.82-16.9-9.76-26.11,2.07-9.24,7.88-15,16.48-18.5,24.06-9.8,48.08-19.69,72.08-29.63,24.17-10.01,48.3-20.11,72.44-30.19,12.43-5.19,24.83-10.46,37.28-15.58,15.79-6.49,31.76-12.56,47.41-19.36,27.75-12.07,55.96-22.98,83.8-34.82,23.98-10.2,47.89-20.66,72.4-29.43,16.23-5.81,33.55-6.42,50.85-4.99,24.51,2.02,46.41,12.2,68.66,21.38,17.45,7.2,34.92,14.37,52.33,21.65,21.55,9.01,42.91,18.52,64.65,27.05,13.37,5.24,26.6,10.82,39.82,16.39,24.14,10.17,48.68,19.39,72.6,30.02,26.73,11.88,53.98,22.43,80.99,33.6,12.66,5.23,25.49,10.11,37.86,15.94,7.17,3.38,11.73,9.32,12.19,18.05.85,16.05-5.48,23.62-18.47,28.43-11.74,4.35-23.41,8.94-34.93,13.83-20.83,8.85-42.22,16.27-63,25.27-7.13,3.08-14.73,5.5-22.13,8.13-6,2.14-11.91,4.9-17.91,7.27-11.72,4.64-23.59,9.02-35.19,13.83-10.84,4.49-21.92,8.57-32.57,13.63-8.15,3.87-16.88,6.53-25.3,9.86-27.71,10.96-55.56,21.6-83,33.2-7.85,3.32-16.26,4.73-23.76,8.26-7.14,3.36-14.46,6.19-21.64,9.39-12.53,5.57-25.48,9.8-38.93,12.46-8.02,1.58-16.15,1.83-24.3,1.83Z"/>
      <path class="cls-4" d="m374.13,580.23c-13.96,6.82-27.91,13.69-41.9,20.46-15.57,7.55-31.18,15.02-46.78,22.51-36.96,17.75-73.93,35.49-110.9,53.23-24.21,11.62-48.4,23.29-72.65,34.84-15.21,7.24-29.61,2.34-37.43-12.52-2.19-4.16-1.88-8.67-1.88-13.12-.02-113.43.05-226.87-.15-340.3-.02-8.31,1.56-15.26,8.01-20.72,3.8,1.84,6.68,4.89,9.86,7.53,10.33,8.59,20.57,17.28,30.83,25.96,13.55,11.46,27.06,22.98,40.63,34.42,11.66,9.83,23.41,19.57,35.07,29.41,13.82,11.66,27.65,23.3,41.35,35.1,9.51,8.19,18.5,17.02,28.25,24.9,16.33,13.21,31.49,27.85,48.71,39.96,4.13,2.91,6.73,7.27,10.6,10.44,11.67,9.55,23.12,19.36,34.79,28.91,7.82,6.39,14.93,13.66,23.6,19Z"/>
      <path class="cls-3" d="m374.13,580.23c-8.67-5.33-15.79-12.6-23.6-19-11.67-9.55-23.12-19.36-34.79-28.91-3.87-3.17-6.47-7.53-10.6-10.44-17.22-12.12-32.38-26.76-48.71-39.96-9.75-7.89-18.74-16.71-28.25-24.9-13.7-11.8-27.53-23.44-41.35-35.1-11.66-9.84-23.41-19.57-35.07-29.41-13.57-11.44-27.08-22.95-40.63-34.42-10.26-8.68-20.5-17.37-30.83-25.96-3.18-2.64-6.06-5.69-9.86-7.53,6.43-9,20.64-10.37,31.91-6.04,13.53,5.19,26.88,10.87,40.35,16.22,13.94,5.53,28.03,10.71,41.9,16.43,17.64,7.28,35.48,14.06,53.06,21.53,15.99,6.79,32.49,12.38,48.66,18.76,17.11,6.75,34.05,13.92,51.14,20.71,20.78,8.25,41.68,16.2,62.46,24.44,16.37,6.49,32.47,13.72,49.03,19.66,14.94,5.37,29.47,11.73,44.31,17.32,10.71,4.03,18.07,11.1,18.9,23.46.66,9.88-4.36,18.73-14.65,23.82-16.81,8.32-33.75,16.38-50.65,24.54-15.62,7.54-31.23,15.07-46.87,22.56-8.6,4.12-17.25,8.15-25.88,12.22Z"/>
    </g>
  </g>
</svg>