<?xml version="1.0" encoding="UTF-8" standalone="no"?>
<!-- Created with Inkscape (http://www.inkscape.org/) -->

<svg
   version="1.1"
   id="svg1329"
   xml:space="preserve"
   width="682.66669"
   height="682.66669"
   viewBox="0 0 682.66669 682.66669"
   xmlns="http://www.w3.org/2000/svg"
   xmlns:svg="http://www.w3.org/2000/svg"><defs
     id="defs1333"><clipPath
       clipPathUnits="userSpaceOnUse"
       id="clipPath1343"><path
         d="M 0,512 H 512 V 0 H 0 Z"
         id="path1341" /></clipPath></defs><g
     id="g1335"
     transform="matrix(1.3333333,0,0,-1.3333333,0,682.66667)"><g
       id="g1337"><g
         id="g1339"
         clip-path="url(#clipPath1343)"><g
           id="g1345"
           transform="translate(497)"><path
             d="m 0,0 h -482 c -8.284,0 -15,6.716 -15,15 v 282 c 0,4.462 1.986,8.693 5.421,11.543 l 241,200 c 5.555,4.609 13.603,4.609 19.158,0 l 241,-200 C 13.014,305.693 15,301.462 15,297 V 15 C 15,6.716 8.284,0 0,0"
             style="fill:#ffcd14;fill-opacity:1;fill-rule:nonzero;stroke:none"
             id="path1347" /></g><g
           id="g1349"
           transform="translate(506.5791,308.543)"><path
             d="m 0,0 -241,200 c -2.777,2.305 -6.179,3.457 -9.579,3.457 v -512 h 241 c 8.284,0 15,6.716 15,15 v 282 C 5.421,-7.081 3.435,-2.85 0,0"
             style="fill:#ffb400;fill-opacity:1;fill-rule:nonzero;stroke:none"
             id="path1351" /></g><g
           id="g1353"
           transform="translate(426,132)"><path
             d="m 0,0 h -340 c -8.284,0 -15,6.716 -15,15 v 290 c 0,8.284 6.716,15 15,15 H 0 c 8.284,0 15,-6.716 15,-15 V 15 C 15,6.716 8.284,0 0,0"
             style="fill:#dcf5fa;fill-opacity:1;fill-rule:nonzero;stroke:none"
             id="path1355" /></g><g
           id="g1357"
           transform="translate(426,452)"><path
             d="M 0,0 H -170 V -320 H 0 c 8.284,0 15,6.716 15,15 V -15 C 15,-6.716 8.284,0 0,0"
             style="fill:#bedce6;fill-opacity:1;fill-rule:nonzero;stroke:none"
             id="path1359" /></g><g
           id="g1361"
           transform="translate(251.7139,269.3784)"><path
             d="m 0,0 c -11.861,0 -24.663,12.817 -24.663,33.525 0,19.854 13,31.718 25.567,31.718 13.091,0 22.337,-12.241 22.833,-29.955 L 23.72,31.867 C 23.018,14.127 12.648,0 0,0 m 95.905,59.742 c -0.028,0.104 -0.057,0.208 -0.089,0.311 -7.41,24.551 -23.987,44.653 -46.679,56.604 -22.688,11.949 -48.651,14.241 -73.106,6.458 -23.173,-7.377 -42.451,-23.28 -54.283,-44.778 -11.837,-21.505 -14.949,-46.299 -8.765,-69.816 5.357,-20.367 16.922,-37.938 33.449,-50.812 15.91,-12.396 35.728,-19.528 55.803,-20.084 0.095,-0.002 0.188,-0.003 0.282,-0.003 5.394,0 9.84,4.297 9.991,9.723 0.152,5.521 -4.199,10.12 -9.72,10.273 -33.058,0.914 -62.033,23.938 -70.463,55.99 -10.151,38.603 11.711,78.333 49.773,90.449 19.309,6.148 39.808,4.337 57.718,-5.096 C 57.684,89.551 70.75,73.74 76.623,54.429 80.341,40.368 79.12,27.305 72.549,10.783 70.746,6.25 65.158,-4.293 52.231,-4.293 c -2.434,0 -4.314,1.523 -5.218,2.432 -2.156,2.166 -3.433,5.358 -3.417,8.539 l 0.124,25.047 c 0.019,0.685 0.041,1.369 0.041,2.061 0,0.434 -0.017,0.86 -0.025,1.29 l 0.229,46.164 c 0.027,5.522 -4.428,10.022 -9.95,10.049 h -0.051 c -5.499,0 -9.972,-4.445 -9.999,-9.951 L 23.948,77.892 C 17.414,82.597 9.577,85.243 0.904,85.243 -21.494,85.243 -44.663,65.898 -44.663,33.525 -44.663,4.011 -24.627,-20 0,-20 c 10.437,0 19.903,4.285 27.347,11.517 1.449,-2.746 3.293,-5.278 5.489,-7.485 5.342,-5.369 12.23,-8.325 19.395,-8.325 20.566,0 33.58,14.301 38.902,27.685 8.199,20.616 9.671,37.995 4.772,56.35"
             style="fill:#696969;fill-opacity:1;fill-rule:nonzero;stroke:none"
             id="path1363" /></g><g
           id="g1365"
           transform="translate(264.2217,216.7236)"><path
             d="M 0,0 C 0.138,5.009 -3.436,9.248 -8.222,10.106 V -9.559 C -3.657,-8.739 -0.134,-4.818 0,0"
             style="fill:#555555;fill-opacity:1;fill-rule:nonzero;stroke:none"
             id="path1367" /></g><g
           id="g1369"
           transform="translate(347.5303,329.4316)"><path
             d="m 0,0 c -7.41,24.55 -23.987,44.653 -46.68,56.604 -14.07,7.411 -29.401,11.103 -44.85,10.985 V 47.578 c 12.239,0.114 24.385,-2.801 35.53,-8.67 17.867,-9.41 30.934,-25.221 36.807,-44.532 3.717,-14.061 2.497,-27.125 -4.075,-43.647 -1.802,-4.533 -7.39,-15.076 -20.317,-15.076 -2.435,0 -4.314,1.524 -5.219,2.432 -2.155,2.167 -3.432,5.359 -3.417,8.54 l 0.124,25.046 c 0.02,0.685 0.041,1.37 0.041,2.061 0,0.435 -0.016,0.86 -0.024,1.291 l 0.228,46.164 c 0.028,5.522 -4.427,10.021 -9.95,10.049 h -0.051 c -5.499,0 -9.971,-4.445 -9.999,-9.951 l -0.016,-3.447 c -5.674,4.086 -12.33,6.616 -19.662,7.213 V 4.902 c 11.275,-1.927 18.999,-13.522 19.451,-29.667 l -0.018,-3.422 c -0.621,-15.686 -8.802,-28.541 -19.433,-31.307 v -20.307 c 8.738,1.003 16.65,5.037 23.06,11.264 1.449,-2.745 3.293,-5.277 5.49,-7.484 5.341,-5.369 12.23,-8.326 19.395,-8.326 20.565,0 33.579,14.302 38.901,27.685 8.2,20.617 9.671,37.996 4.773,56.351 C 0.061,-0.207 0.031,-0.104 0,0"
             style="fill:#555555;fill-opacity:1;fill-rule:nonzero;stroke:none"
             id="path1371" /></g><g
           id="g1373"
           transform="translate(497)"><path
             d="m 0,0 h -482 c -8.284,0 -15,6.716 -15,15 v 282 c 0,5.448 2.954,10.467 7.716,13.113 4.762,2.645 10.584,2.501 15.21,-0.378 L -241,164.668 -7.926,309.735 c 4.624,2.879 10.446,3.023 15.21,0.378 C 12.046,307.467 15,302.448 15,297 V 15 C 15,6.716 8.284,0 0,0"
             style="fill:#fff037;fill-opacity:1;fill-rule:nonzero;stroke:none"
             id="path1375" /></g><g
           id="g1377"
           transform="translate(504.2842,310.1128)"><path
             d="m 0,0 c -4.765,2.645 -10.586,2.501 -15.21,-0.378 l -233.074,-145.067 v -164.668 h 241 c 8.284,0 15,6.716 15,15 v 282 C 7.716,-7.665 4.762,-2.646 0,0"
             style="fill:#ffcd14;fill-opacity:1;fill-rule:nonzero;stroke:none"
             id="path1379" /></g></g></g></g></svg>
