<svg id="Capa_1" enable-background="new 0 0 512 512" height="512" viewBox="0 0 512 512" width="512" xmlns="http://www.w3.org/2000/svg"><g><g><g><g><g><path d="m338.086 512c17.622 0 31.908-14.286 31.908-31.908v-402.932h-345.241l-9.271 9.771v393.161c0 17.622 14.286 31.908 31.908 31.908h336.833.01z" fill="#eaf2ff"/><path d="m359.482 77.16v402.932c0 17.622-14.285 31.908-31.908 31.908h56.647c17.622 0 31.908-14.286 31.908-31.908v-393.161l-6.646-9.771z" fill="#c9e0fd"/><path d="m369.993 31.908c0-17.617-14.278-31.899-31.893-31.908h-290.711c-17.622 0-31.907 14.286-31.907 31.908v55.024h354.512v-55.024z" fill="#ffd064"/><path d="m416.13 86.931v-55.023c0-17.622-14.286-31.908-31.908-31.908h-56.642c17.62.003 31.903 14.288 31.903 31.908v55.023z" fill="#ffc250"/></g></g><g><g fill="#60a0f7"><path d="m61.12 167.927h308.873v-15.451h-308.873c-4.267 0-7.726 3.458-7.726 7.726 0 4.266 3.459 7.725 7.726 7.725z"/><path d="m61.12 222.846h308.873v-15.451h-308.873c-4.267 0-7.726 3.458-7.726 7.726s3.459 7.725 7.726 7.725z"/><path d="m61.12 277.766h308.873v-15.451h-308.873c-4.267 0-7.726 3.458-7.726 7.726 0 4.266 3.459 7.725 7.726 7.725z"/></g><path d="m370.491 152.475h-11.009v15.451h11.009c4.267 0 7.726-3.458 7.726-7.726 0-4.266-3.459-7.725-7.726-7.725z" fill="#538ef6"/><path d="m370.491 207.394h-11.009v15.451h11.009c4.267 0 7.726-3.458 7.726-7.726s-3.459-7.725-7.726-7.725z" fill="#538ef6"/><path d="m370.491 262.314h-11.009v15.451h11.009c4.267 0 7.726-3.458 7.726-7.726 0-4.266-3.459-7.725-7.726-7.725z" fill="#538ef6"/><g><path d="m275.036 332.685h-213.916c-4.267 0-7.726-3.458-7.726-7.726s3.459-7.726 7.726-7.726h213.916c4.267 0 7.726 3.458 7.726 7.726s-3.459 7.726-7.726 7.726z" fill="#60a0f7"/></g><g><path d="m219.455 387.605h-158.335c-4.267 0-7.726-3.458-7.726-7.726s3.459-7.726 7.726-7.726h158.335c4.267 0 7.726 3.458 7.726 7.726s-3.459 7.726-7.726 7.726z" fill="#60a0f7"/></g><g><path d="m164.816 442.523h-103.696c-4.267 0-7.726-3.458-7.726-7.726s3.459-7.726 7.726-7.726h103.696c4.267 0 7.726 3.458 7.726 7.726s-3.459 7.726-7.726 7.726z" fill="#60a0f7"/></g></g><g><path d="m490.821 251.394-14.41-14.41c-7.596-7.596-19.912-7.596-27.508 0l-22.263 22.263-.808 7.873 34.165 34.165 8.561-.12 22.263-22.263c7.596-7.596 7.596-19.912 0-27.508z" fill="#9bc4f9"/><path d="m230.941 469.958-14.643 33.923c-2.081 4.822 2.804 9.707 7.626 7.626l33.923-14.643z" fill="#60a0f7"/></g></g><g><path d="m468.559 301.165-41.918-41.918-21.978 21.978-.458 5.292 36.697 36.697 5.678-.071z" fill="#dbe8f9"/></g></g><g><path d="m240.37 448.114-9.429 21.844 26.906 26.906 21.844-9.429c3.018-1.303 5.762-3.166 8.086-5.49l-41.918-41.918c-2.323 2.325-4.186 5.069-5.489 8.087z" fill="#e8a887"/></g><g><path d="m233.93 351.945h224.58v59.281h-224.58z" fill="#e278b1" transform="matrix(.707 -.707 .707 .707 -168.416 356.579)"/></g></g></svg>