<?xml version="1.0" encoding="UTF-8"?>
<svg id="Layer_2" data-name="Layer 2" xmlns="http://www.w3.org/2000/svg" viewBox="0 0 64.01 64.87">
  <g id="Layer_1-2" data-name="Layer 1">
    <path d="m59.79,26.55c1.47-4.42.96-9.26-1.39-13.27-3.54-6.16-10.66-9.33-17.6-7.84C37.71,1.95,33.26-.03,28.61,0c-7.1-.02-13.41,4.56-15.59,11.32-4.56.93-8.5,3.79-10.81,7.84-3.57,6.15-2.75,13.9,2.01,19.17-1.47,4.42-.96,9.26,1.39,13.27,3.54,6.16,10.66,9.33,17.6,7.84,3.09,3.48,7.53,5.46,12.19,5.43,7.11.02,13.41-4.56,15.6-11.32,4.56-.93,8.5-3.79,10.81-7.84,3.56-6.15,2.75-13.89-2.02-19.16h0Zm-24.38,34.08c-2.84,0-5.6-.99-7.78-2.81.1-.05.27-.15.38-.22l12.92-7.46c.66-.38,1.07-1.08,1.06-1.84v-18.21l5.46,3.15c.06.03.1.09.11.15v15.08c0,6.71-5.44,12.14-12.15,12.16h0Zm-26.12-11.16c-1.43-2.46-1.94-5.35-1.45-8.15.1.06.26.16.38.23l12.92,7.46c.65.38,1.47.38,2.12,0l15.77-9.11v6.3c0,.06-.03.13-.08.17l-13.06,7.54c-5.82,3.35-13.24,1.36-16.61-4.45h0Zm-3.4-28.2c1.42-2.47,3.66-4.35,6.33-5.33,0,.11,0,.31,0,.45v14.92c0,.76.4,1.46,1.06,1.84l15.77,9.1-5.46,3.15c-.05.04-.12.04-.18.02l-13.06-7.55c-5.8-3.36-7.79-10.79-4.45-16.6h0Zm44.86,10.44l-15.77-9.11,5.46-3.15c.05-.04.12-.04.18-.02l13.06,7.54c5.81,3.36,7.81,10.8,4.45,16.61-1.42,2.46-3.66,4.35-6.33,5.33v-15.37c0-.76-.4-1.46-1.05-1.84h0Zm5.43-8.18c-.1-.06-.26-.16-.38-.23l-12.92-7.46c-.65-.38-1.47-.38-2.12,0l-15.77,9.11v-6.3c0-.06.03-.13.08-.17l13.06-7.53c5.82-3.36,13.25-1.36,16.61,4.46,1.42,2.46,1.93,5.33,1.45,8.13h0Zm-34.16,11.24l-5.46-3.15c-.06-.03-.1-.09-.11-.15v-15.08c0-6.71,5.45-12.16,12.17-12.15,2.84,0,5.59,1,7.77,2.81-.1.05-.27.15-.38.22l-12.92,7.46c-.66.38-1.07,1.08-1.06,1.84v18.2s0,0,0,0Zm2.97-6.39l7.02-4.06,7.02,4.05v8.11l-7.02,4.05-7.02-4.05v-8.11Z"/>
  </g>
</svg>