<svg id="Capa_1" enable-background="new 0 0 512 512" height="512" viewBox="0 0 512 512" width="512" xmlns="http://www.w3.org/2000/svg"><g><g><path d="m66.602 66.602h-66.602v-56.602c0-5.523 4.477-10 10-10h56.602z" fill="#e279b3"/></g><g><path d="m66.602 0h148.466v66.602h-148.466z" fill="#a2f5c3"/></g><g><path d="m215.068 0h148.466v66.602h-148.466z" fill="#88f2a9"/></g><g><path d="m512 66.602h-148.466v-66.602h138.466c5.523 0 10 4.477 10 10z" fill="#a2f5c3"/></g><g><path d="m0 66.602h66.602v66.602h-66.602z" fill="#b2e5fb"/></g><g><path d="m0 133.203h66.602v66.602h-66.602z" fill="#91dafa"/></g><g><path d="m0 199.805h66.602v66.602h-66.602z" fill="#b2e5fb"/></g><g><path d="m0 266.406h66.602v66.602h-66.602z" fill="#91dafa"/></g><g><path d="m0 333.008h66.602v66.602h-66.602z" fill="#b2e5fb"/></g><g><path d="m66.602 466.211h-56.602c-5.523 0-10-4.477-10-10v-56.601h66.602z" fill="#91dafa"/></g><g><path d="m502 466.211h-435.398v-399.609h445.398v389.61c0 5.522-4.477 9.999-10 9.999z" fill="#e6fdef"/></g><path d="m512 140.703v-15h-140.966v-59.101h-15v59.102h-133.467v-59.102h-15v59.102h-140.965v15h140.966v51.602h-140.966v15h140.966v51.602h-140.966v15h140.966v51.602h-140.966v15h140.966v51.602h-140.966v15h140.966v59.102h15v-59.102h83.269v-15h-83.269v-51.602h83.269v-15h-83.269v-51.602h96.332v-15h-96.332v-51.602h133.467v54.729h15v-54.729h140.965v-15h-140.966v-51.602h140.966zm-155.966 51.602h-133.467v-51.602h133.467z" fill="#a2f5c3"/><g><g><path d="m512 465.946c0 25.435-52.837 46.054-118.014 46.054s-118.014-20.619-118.014-46.054v-89.23h236.028z" fill="#b6c4cf"/></g><g><path d="m393.986 512c65.177 0 118.014-20.619 118.014-46.054v-89.23h-28.784v77.967c0 6.042-3.756 11.479-9.443 13.518-21.005 7.533-49.011 12.137-79.787 12.137-65.177 0-118.014-20.619-118.014-46.054v31.662c0 25.435 52.836 46.054 118.014 46.054z" fill="#9facba"/></g><g><path d="m512 376.715c0 25.435-52.837 46.054-118.014 46.054s-118.014-20.619-118.014-46.054v-89.23h236.028z" fill="#b6c4cf"/></g><g><path d="m393.986 422.77c65.177 0 118.014-20.619 118.014-46.054v-89.23h-28.784v77.967c0 6.042-3.756 11.479-9.443 13.518-21.005 7.533-49.011 12.137-79.787 12.137-65.177 0-118.014-20.619-118.014-46.054v31.662c0 25.435 52.836 46.054 118.014 46.054z" fill="#9facba"/></g><g><ellipse cx="393.986" cy="287.485" fill="#d9e7ec" rx="118.014" ry="46.054"/></g></g><g><circle cx="444.865" cy="373.091" fill="#e279b3" r="7.805"/></g><g><circle cx="476.084" cy="362.685" fill="#e279b3" r="7.805"/></g><g><circle cx="444.865" cy="460.673" fill="#e279b3" r="7.805"/></g><g><circle cx="476.084" cy="450.266" fill="#e279b3" r="7.805"/></g></g></svg>